PathFileType	4	(X/Y/Z)	C:/Users/opensim2020/Desktop/walking_exp_matlab/subject03_walking06_straight_01.trc	
DataRate	CameraRate	NumFrames	NumMarkers	Units	OrigDataRate	OrigDataStartFrame	OrigNumFrames	
100.00	100.00	9	44	mm	100.00	578	362	
Frame#	Time	LFHD			RFHD			LBHD			RBHD			C7			T10			CLAV			STRN			RBAK			LSHO			LUPA			LELB			LFRM			LWRA			LWRB			LFIN			RSHO			RUPA			RELB			RFRM			RWRA			RWRB			RFIN			LASI			RASI			LPSI			RPSI			LTHI			LKNE			LTIB			LANK			LHEE			LTOE			RTHI			RKNE			RTIB			RANK			RHEE			RTOE			*39			*40			*41			*42			*43			
		X1	Y1	Z1	X2	Y2	Z2	X3	Y3	Z3	X4	Y4	Z4	X5	Y5	Z5	X6	Y6	Z6	X7	Y7	Z7	X8	Y8	Z8	X9	Y9	Z9	X10	Y10	Z10	X11	Y11	Z11	X12	Y12	Z12	X13	Y13	Z13	X14	Y14	Z14	X15	Y15	Z15	X16	Y16	Z16	X17	Y17	Z17	X18	Y18	Z18	X19	Y19	Z19	X20	Y20	Z20	X21	Y21	Z21	X22	Y22	Z22	X23	Y23	Z23	X24	Y24	Z24	X25	Y25	Z25	X26	Y26	Z26	X27	Y27	Z27	X28	Y28	Z28	X29	Y29	Z29	X30	Y30	Z30	X31	Y31	Z31	X32	Y32	Z32	X33	Y33	Z33	X34	Y34	Z34	X35	Y35	Z35	X36	Y36	Z36	X37	Y37	Z37	X38	Y38	Z38	X39	Y39	Z39	X40	Y40	Z40	X41	Y41	Z41	X42	Y42	Z42	X43	Y43	Z43	X44	Y44	Z44	

136	1.350	1344.58618	-497.01074	1623.40430	1477.13599	-510.34119	1630.78711	1337.62634	-625.50549	1580.13940	1468.37891	-633.52222	1587.09363	1397.20508	-658.87543	1420.40637	1405.92236	-692.62646	1108.76758	1406.40198	-537.03448	1344.71643	1410.78406	-490.85651	1180.35327	1497.76563	-714.09296	1248.48669	1247.19702	-576.16241	1378.12585	1184.04187	-599.69269	1178.37610	1176.45142	-606.41467	1054.93054	1178.25024	-594.19708	924.79065	1210.89294	-589.24512	804.25159	1159.54395	-612.59625	812.89905	1173.21289	-613.50079	726.95715	1561.30713	-591.46088	1376.54211	1636.44812	-570.05225	1157.46008	1647.45569	-538.23993	1049.08923	1643.71521	-492.78134	920.03870	1602.99988	-442.75113	835.74744	1647.26892	-470.83704	821.86902	1632.28467	-433.41885	757.73877	1299.17212	-526.61841	946.70490	1533.88257	-541.26410	937.00562	1337.73511	-690.73462	972.09521	1487.16199	-696.89850	973.12054	1256.14624	-558.64545	645.62939	1302.60449	-527.91785	471.46707	1302.85339	-551.03717	278.24191	1347.24182	-536.12482	69.39278	1383.33264	-575.08917	35.46278	1374.84973	-383.07172	37.74541	1575.69702	-599.14868	636.43488	1553.37256	-583.82288	456.33588	1553.00354	-729.58246	330.54892	1503.29358	-892.02557	191.79054	1449.02051	-938.57996	209.24628	1476.80676	-848.08539	54.91267	1388.21753	-583.70795	1689.12256												 
137	1.360	1344.04822	-488.95749	1624.14587	1476.54565	-502.39188	1631.77942	1337.10901	-617.19391	1580.16919	1467.85754	-625.30896	1587.42029	1396.41614	-650.19147	1420.83459	1404.89856	-683.70056	1109.04944	1406.32434	-528.41522	1345.21924	1410.66199	-482.18140	1180.81738	1496.46362	-705.65332	1248.48096	1247.03357	-566.20911	1378.41211	1182.98889	-587.54755	1178.64038	1175.15894	-593.31110	1055.09143	1177.53015	-579.03223	925.21301	1210.18628	-572.41583	805.00214	1158.64380	-595.36346	813.01068	1172.38733	-595.26746	727.10114	1561.05603	-583.48737	1376.68091	1636.25195	-563.10547	1157.31543	1647.40649	-531.96936	1048.67749	1643.81702	-487.43857	919.26654	1603.37683	-437.74338	834.60895	1647.57605	-466.36209	820.90796	1632.13306	-429.83627	756.09442	1298.46838	-517.72144	946.66028	1533.53967	-532.72461	937.17316	1336.68311	-681.72266	972.19714	1486.15063	-688.32965	972.87793	1255.04016	-552.34705	645.94800	1301.70764	-523.70459	471.32001	1302.42664	-548.62592	278.48157	1347.27893	-535.99597	69.41933	1383.31860	-575.12036	35.62083	1374.95959	-383.28738	37.27733	1575.20361	-585.92719	636.75018	1553.62927	-565.17303	457.08371	1552.56982	-711.52429	333.47110	1503.73792	-875.97729	197.30362	1448.93518	-922.71570	213.52763	1480.56787	-830.96844	60.26498	1388.05896	-577.13757	1690.15125												 
138	1.370	1343.50793	-480.86459	1624.82263	1476.05017	-494.40012	1632.71399	1336.68506	-608.88263	1580.22705	1467.39343	-617.07190	1587.74463	1395.74487	-641.42065	1421.20142	1403.92358	-674.80658	1109.32886	1406.32605	-519.79315	1345.73621	1410.65845	-473.56131	1181.23499	1495.12378	-697.56726	1248.47705	1246.97241	-556.36853	1378.50342	1182.08765	-575.13580	1178.66772	1173.90540	-579.54254	1055.19385	1176.60461	-563.56793	925.46118	1209.48523	-555.61017	805.47620	1157.57764	-578.01068	813.07532	1171.47852	-576.42224	727.28369	1560.93250	-575.58301	1376.61829	1635.98975	-556.13574	1156.99573	1647.46997	-525.69678	1048.07544	1644.06641	-482.17410	918.30200	1604.06482	-432.74432	833.27948	1647.87415	-461.93744	819.73395	1632.91455	-425.95728	754.67676	1297.78650	-508.74823	946.84265	1533.03101	-524.57269	937.13153	1335.86377	-673.27289	972.44373	1485.21765	-679.83978	972.52496	1254.06726	-545.96509	646.43597	1301.01416	-519.61578	471.51895	1302.04114	-546.30981	278.72324	1347.30823	-535.88708	69.60196	1383.26099	-574.87134	35.46956	1375.06360	-383.09604	37.05857	1574.77625	-572.80212	637.39703	1554.00378	-546.66138	458.39807	1551.93176	-693.47125	336.61868	1504.23376	-858.85510	201.48552	1448.81897	-905.78967	216.67593	1484.58618	-812.47632	64.60443	1383.98279	-566.89178	1688.82214												 
139	1.380	1343.13989	-472.71960	1625.54211	1475.61377	-486.36649	1633.58740	1336.32422	-600.50873	1580.30054	1467.02917	-608.83673	1588.03174	1395.21436	-632.82452	1421.70605	1403.03271	-666.17151	1109.74695	1406.34680	-511.24872	1346.21313	1410.60034	-464.97232	1181.64197	1493.67114	-689.69446	1248.50110	1246.78723	-546.77783	1378.58704	1181.34045	-562.67743	1178.70325	1172.69373	-565.92615	1055.25769	1175.69177	-547.91278	925.72345	1208.94604	-538.10486	806.31494	1156.60388	-560.14447	813.13104	1170.60339	-557.14471	727.47931	1560.90564	-567.72406	1376.41528	1635.70752	-549.26312	1156.48083	1647.49451	-519.39264	1047.39746	1644.28247	-476.90192	917.21631	1604.75928	-427.88751	831.81818	1648.30676	-457.59366	818.43811	1633.18945	-422.16248	752.80261	1296.96069	-499.75424	947.20923	1532.41113	-516.55933	937.06433	1335.21826	-664.88977	972.58490	1484.41992	-671.44995	972.26080	1254.00012	-539.33459	646.78015	1300.50586	-515.33978	471.70792	1301.76880	-543.88708	278.98355	1347.32458	-535.76764	69.68169	1383.25256	-574.87689	35.59006	1375.24255	-382.68655	37.09579	1574.45667	-559.54254	638.33313	1554.28162	-528.48615	460.23267	1551.76282	-675.03601	339.25992	1504.73206	-840.89825	204.55208	1448.65430	-888.16821	218.60381	1488.31433	-793.02838	68.32431															 
140	1.390	1342.83276	-464.54626	1626.15503	1475.33069	-478.34827	1634.38733	1336.05066	-592.21918	1580.38782	1466.72034	-600.59485	1588.30713	1394.74670	-624.01996	1422.23694	1402.23376	-657.55914	1110.17944	1406.31018	-502.82187	1346.56738	1410.32104	-456.57040	1182.01697	1492.08533	-681.75140	1248.47559	1246.64221	-537.45374	1378.61426	1180.75427	-550.55457	1178.67004	1171.69165	-551.84247	1055.28687	1174.94055	-531.97504	926.06232	1208.35352	-520.95862	806.88763	1155.61694	-542.18488	813.30096	1169.55688	-537.35370	727.87079	1560.93738	-559.98035	1376.11841	1635.41309	-542.43842	1155.95288	1647.25696	-513.30670	1046.63928	1644.53552	-471.74649	916.07062	1605.46375	-423.10934	830.32983	1648.65527	-453.35565	817.12128	1633.96619	-418.44608	751.62848	1296.07202	-491.89426	947.30536	1531.58020	-508.60123	937.05396	1334.79700	-656.51727	972.96185	1483.86462	-662.96027	972.12280	1254.39490	-532.82397	647.15900	1300.46814	-510.71649	471.92938	1301.67822	-541.45734	279.20081	1347.41162	-535.61188	69.83346	1383.26526	-574.91046	35.71185	1375.41650	-382.51123	36.92367	1574.23694	-546.02527	639.34650	1554.42688	-510.55560	462.34662	1551.99048	-656.34448	341.39688	1505.16418	-822.32288	206.68448	1448.65918	-869.97693	219.35858	1491.49951	-772.44818	71.28981	1383.02869	-551.15118	1689.37854												 
141	1.400	1342.60815	-456.40167	1626.78430	1475.08777	-470.22052	1635.10596	1335.80811	-583.86908	1580.49609	1466.50488	-592.35425	1588.55579	1394.52148	-615.48029	1422.87219	1401.62695	-649.21350	1110.68127	1406.18213	-494.46054	1346.94336	1409.98071	-448.18277	1182.38342	1490.62427	-673.89215	1248.48010	1246.56885	-528.41644	1378.76917	1180.35583	-538.05469	1178.82654	1170.93542	-537.63776	1055.50928	1174.33337	-515.83374	926.58337	1206.37415	-502.58658	807.52478	1154.66394	-523.93823	813.73254	1168.48450	-517.06439	728.64258	1561.01001	-552.37250	1375.91113	1635.05896	-535.67206	1155.44067	1647.24084	-506.84946	1045.95728	1644.77661	-466.65250	915.00391	1606.20227	-418.50052	828.90930	1649.03259	-449.54578	815.98853	1634.79004	-414.59180	750.27411	1294.74219	-483.62143	947.64270	1531.80884	-498.26260	938.11176	1334.55200	-648.30731	973.27588	1483.47168	-654.40607	972.27338	1254.89795	-525.80035	647.39459	1300.70508	-506.01532	471.89240	1301.66516	-539.12402	279.38367	1347.74841	-535.37988	69.80700	1383.49121	-575.01379	36.00003	1375.61401	-382.33191	36.72520	1574.07117	-532.36060	640.44958	1554.53040	-492.75925	464.57468	1552.28845	-637.49084	343.08365	1505.66138	-803.02899	207.67053	1449.01392	-851.37256	218.87329	1494.25916	-750.40881	73.73544	1382.92249	-543.42548	1689.89697												 
142	1.410	1342.42651	-448.26169	1627.23755	1474.86279	-462.12247	1635.65527	1335.66504	-575.52753	1580.55786	1466.46387	-584.22113	1588.80090	1394.24634	-606.98273	1423.19006	1401.01282	-640.68738	1111.09546	1406.23828	-486.00250	1347.37061	1409.74048	-439.76340	1182.72644	1489.23047	-666.05792	1248.55969	1246.51050	-519.51556	1379.01917	1180.19287	-525.87231	1179.21021	1170.26794	-523.19556	1056.03442	1173.84937	-499.53137	927.44287	1206.15735	-485.30441	808.90265	1154.11523	-505.20032	814.39044	1167.38696	-496.12863	729.72296	1561.07043	-544.73926	1375.70203	1634.79688	-529.11951	1155.00110	1646.88135	-501.13339	1045.39966	1645.00293	-461.65012	914.07983	1606.89575	-414.00089	827.57178	1649.52368	-445.29495	814.80804	1635.70837	-410.68042	748.99799	1293.71252	-475.33658	948.17633	1531.03345	-489.48465	938.93237	1334.47192	-639.99884	973.66742	1483.24402	-645.79846	972.59357	1255.38623	-518.65240	647.74890	1300.88489	-501.14731	471.78619	1301.80103	-536.79565	279.52740	1347.86914	-535.24036	70.01148	1383.64136	-574.95599	36.08015	1375.78418	-382.15219	36.53862	1573.96509	-518.75031	641.71796	1554.43127	-475.21609	466.78915	1552.31421	-618.65253	344.47961	1506.20544	-783.08948	207.63986	1449.66321	-832.18970	217.25989	1496.34912	-727.09436	75.39484	1382.67053	-535.51910	1689.85535												 
143	1.420	1342.25574	-440.09650	1627.63379	1474.73730	-453.96634	1636.13770	1335.59216	-567.24799	1580.64392	1466.22693	-575.83917	1588.85352	1394.01343	-598.62280	1423.61255	1400.56409	-632.53894	1111.48511	1406.28638	-477.57562	1347.69629	1409.47351	-431.58859	1183.00122	1488.03870	-658.32977	1248.70837	1246.43530	-510.76709	1379.44775	1179.80103	-513.41986	1179.83240	1169.89990	-508.88312	1056.73096	1173.60400	-483.15256	928.64349	1206.06580	-467.98123	810.39606	1153.14905	-486.56815	815.70844	1166.42493	-475.74844	731.39288	1561.05444	-537.37720	1375.73425	1634.40747	-522.92004	1154.72180	1646.83801	-494.82486	1044.99390	1645.21521	-456.80768	913.31036	1607.67285	-409.59692	826.55231	1649.86047	-441.59326	813.97809	1636.68640	-406.75430	747.93750	1292.71509	-467.33450	948.58142	1530.20642	-480.62036	939.92572	1334.44531	-631.82208	974.00073	1483.11768	-637.20941	973.12103	1255.72498	-511.32352	647.78351	1301.15405	-496.83142	471.61871	1301.89087	-534.49603	279.76001	1347.97424	-535.07501	70.23215	1383.77673	-574.95319	36.26451	1375.89417	-381.98755	36.41528	1573.31714	-504.23096	642.71014	1554.11597	-457.92307	469.01199	1551.97522	-599.77386	345.45410	1506.71338	-762.59363	206.56311	1450.32959	-812.49896	214.62354	1497.74805	-702.85327	76.19714	1382.40991	-527.47162	1690.23657												 
144	1.430	1342.11450	-431.92804	1628.00134	1474.67065	-445.80505	1636.50708	1335.58972	-558.97791	1580.65662	1466.19727	-567.53711	1588.92773	1393.76001	-590.17053	1424.03320	1400.17346	-624.30493	1111.83093	1406.18530	-469.41638	1347.92334	1409.18494	-423.55035	1183.25427	1487.09058	-650.50037	1248.92761	1246.39246	-502.08319	1379.99329	1180.13672	-501.88971	1180.67957	1169.96765	-494.00470	1057.84631	1173.41980	-466.69016	930.22461	1205.86511	-450.21051	812.27185	1152.61670	-467.73666	817.31213	1165.34155	-454.67285	733.55548	1561.01123	-529.68414	1375.66370	1634.20435	-516.68860	1154.47485	1646.54785	-489.23129	1044.80884	1645.38037	-452.04611	912.72076	1608.20142	-405.39801	825.43573	1650.42969	-437.61038	813.32721	1637.84473	-403.15833	747.40350	1291.80505	-459.37256	948.88531	1529.39404	-471.75369	941.06189	1334.37476	-623.44019	974.20264	1483.04529	-628.61731	973.64514	1255.78308	-504.43320	647.90558	1301.29712	-492.36053	471.54922	1301.99780	-532.18585	279.99124	1348.14917	-534.88477	70.41557	1383.80115	-575.00403	36.19286	1375.96973	-381.84854	36.28224	1573.07727	-490.83029	644.43024	1553.60901	-440.84045	471.31299	1551.63953	-580.68317	345.82831	1507.19934	-741.39679	204.31648	1451.14819	-792.20319	210.76221	1498.70117	-677.66949	76.42004	1382.16357	-519.18787	1690.21472												 
